<svg xmlns="http://www.w3.org/2000/svg" viewBox="0 0 220 115"><g fill="none" stroke="#a0a0a0" stroke-width="2"><path d="M175.49 36.87q-8.72-2.51-17.75-3.19c-19.66-1.49-38.97 6.41-54.09 18.73q-3.11 2.54-.43 5.2 1.94 1.91 4.09.24c9.2-7.15 22.98-14.91 34.71-16.24a1.01 1.01 0 0 1 .96.45q7.26 11.4 11.31 15.4 2.59 2.56 5.28.07 1.73-1.6.14-3.77l-8.98-12.19q-1.16-1.57.79-1.6 21.15-.27 40.06 9.44c6.08 3.12 10.43-2.04 4.63-6.6-11.06-8.68-38.94-26.12-53.65-22.34q-8.2 2.11-4.43 12.62a1.01 1 75 0 0 1.11.65l4.71-.82a1 .99-20.3 0 0 .69-1.49q-1.43-2.42.22-3.84c2.44-2.11 10.77.05 13.62.97q9.03 2.9 17.47 7.13 6.2 3.1-.46 1.18M34.82 87.92l1.56 4.41a1.03.98 88.3 0 0 .62.61c2.41.84 2.08-1.45 1.58-2.8q-2.96-8.01-5.95-16.07c-1.56-4.2-3.72-2.32-4.93.76q-3.05 7.8-5.85 15.72c-.48 1.37-.5 3.16 1.67 2.35a1 1 0 0 0 .59-.59l1.64-4.41a.99.99 0 0 1 .93-.65h7.2a1.01.99 80 0 1 .94.67m45.92-14.86a1.34 1.34 0 0 0-1.34-1.34h-.06A1.34 1.34 0 0 0 78 73.06v18.8a1.34 1.34 0 0 0 1.34 1.34h.06a1.34 1.34 0 0 0 1.34-1.34v-18.8m38.15 12.24q-1.67-5.4-3.1-10.86c-1.01-3.86-4.11-3.65-4.72.26q-1.32 8.44-2.82 16.88a1.02 1 30.9 0 0 .21.81c1.47 1.78 2.48.16 2.69-1.34q.77-5.58 1.78-11.16.57-3.17 1.55-.1 1.9 5.97 3.56 12.04c.36 1.31 1.29 1.64 2.43 1.06a1.02.99-6.1 0 0 .51-.61l3.68-12.63q.99-3.38 1.56.1l2.02 12.31a1 .98-80.7 0 0 .5.71q2.37 1.32 1.88-2.01-1.24-8.39-2.72-16.74-.57-3.22-3.4-1.79a.98.97 85.2 0 0-.51.61l-3.57 12.44q-.74 2.58-1.53.02m56.6-12.33a1.21 1.21 0 0 0-1.21-1.21h-.32a1.21 1.21 0 0 0-1.21 1.21v18.84a1.21 1.21 0 0 0 1.21 1.21h.32a1.21 1.21 0 0 0 1.21-1.21V72.97m-38.51 1.12a1.62 1.62 0 0 0-1.62-1.62 1.62 1.62 0 0 0-1.62 1.62 1.62 1.62 0 0 0 1.62 1.62 1.62 1.62 0 0 0 1.62-1.62m6.77 2.12v-2.55a1.01 1 2.5 0 0-.92-1l-.75-.06a1 1 0 0 0-1.08 1v2.68a1 1 0 0 1-.95 1q-1.64.08-1.15 1.52a.99.98 80 0 0 .96.68c1.87-.03 1.14 10.59 1.14 12.34a1 .99 23.2 0 0 .28.69c3.85 4 2.41-10.85 2.38-11.75a1 .99 87.7 0 1 .94-1.03l.38-.02a1.01 1 5.7 0 0 .9-.73q.53-1.83-1.09-1.77a1 1 0 0 1-1.04-1" vector-effect="non-scaling-stroke"/><path d="M152.91 79.75q1.43-.12 1.37-1.54a1 1 0 0 0-1-.96H153a1 1 0 0 1-1-1v-2.62a1 .99.3 0 0-1-1h-.75a1 1 0 0 0-1 1v2.55a1.01 1-10.8 0 1-.64.93q-3.51 1.34.02 2.75a.99.99 0 0 1 .63.94c0 .71-1.21 15.83 2.49 11.7a1.03.97 67.1 0 0 .25-.67V80.75a1.01 1-2.8 0 1 .91-1M43.86 77.77q-1-1.66-2.15-.09c-1.01 1.39-.45 10.41-.45 12.61 0 1.4.39 4.09 2.52 2.28a1 .99 72.1 0 0 .35-.69c.28-4.15-1.63-11.14 4.03-12.26a1 .98-.1 0 0 .78-.77c.43-2.05-1.37-2.14-2.67-1.37q-.52.31-1.03.62a1 1 0 0 1-1.38-.33" vector-effect="non-scaling-stroke"/><path d="M56.29 90.71c-7.44-2.07-4.53-13.95 2.53-10.59a1 .98-49.5 0 0 1-.09c1.59-1.12.08-2.31-1.1-2.65-12.03-3.45-13.61 18.14.18 15.4q1.94-.38 1.54-2.32-.22-1.08-3.52.22a1 1 0 0 1-.63.03" vector-effect="non-scaling-stroke"/><path d="M65.63 86.25h8.92a1 1 0 0 0 1-1.02c-.09-4.78-3.38-9.6-8.81-8-9.93 2.94-4.7 21.56 6.9 14.56 1.18-.71 2.32-2.61-.18-2.75a1.01.99 27.4 0 0-.66.2q-2.65 2.03-5.57 1.08-2.19-.71-2.58-2.89a1 1 0 0 1 .98-1.18m24.526 7.01a8.19 7.02 89.4 0 0 6.934-8.264 8.19 7.02 89.4 0 0-7.106-8.116 8.19 7.02 89.4 0 0-6.934 8.264 8.19 7.02 89.4 0 0 7.106 8.116m11.794-15.59q-.52-1.07-1.83-.54a1.01.99 79.2 0 0-.62.93v13.99a1 .99-79.8 0 0 .64.93c4.92 1.91-1.48-11.99 5.89-13.17a.99.98 6.5 0 0 .75-.59q.81-1.85-1.13-2.28a1 .98 33.5 0 0-.77.15l-1.47.98a1 1 0 0 1-1.46-.4m34.79.68a1.33 1.33 0 0 0-1.33-1.33h-.08a1.33 1.33 0 0 0-1.33 1.33v13.52a1.33 1.33 0 0 0 1.33 1.33h.08a1.33 1.33 0 0 0 1.33-1.33V78.35m30.09 14.18q.58 1.34 2.06.05a1 1 0 0 0 .35-.76c-.01-2.44.63-12.37-.39-13.95q-1.21-1.86-2.13-.18a.99.99 0 0 1-1.41.36q-2.9-1.86-5.68-.61c-5.78 2.61-5.79 12.83.15 15.28q2.78 1.14 5.6-.64a1 1 0 0 1 1.45.45M27.08 84.34a.32.32 0 0 0 .31.42l5.77-.03a.32.32 0 0 0 .3-.43l-2.93-8.17a.32.32 0 0 0-.6 0l-2.85 8.21" vector-effect="non-scaling-stroke"/><path d="M70.56 80.19q-4.61-2.05-5.84 2.51a1.01 1-82.6 0 0 .96 1.26l5.68.03a1 1 0 0 0 1.01-1.04q-.08-2-1.81-2.76M90.08 90.6a5.53 4.12 90 0 0 4.12-5.53 5.53 4.12 90 0 0-4.12-5.53 5.53 4.12 90 0 0-4.12 5.53 5.53 4.12 90 0 0 4.12 5.53m72.288 0a5.54 4.12 89.5 0 0 4.072-5.576 5.54 4.12 89.5 0 0-4.168-5.504 5.54 4.12 89.5 0 0-4.072 5.576 5.54 4.12 89.5 0 0 4.168 5.504" vector-effect="non-scaling-stroke"/></g><path fill="#414141" d="M0 0h220v115H0V0Zm175.49 36.87q-8.72-2.51-17.75-3.19c-19.66-1.49-38.97 6.41-54.09 18.73q-3.11 2.54-.43 5.2 1.94 1.91 4.09.24c9.2-7.15 22.98-14.91 34.71-16.24a1.01 1.01 0 0 1 .96.45q7.26 11.4 11.31 15.4 2.59 2.56 5.28.07 1.73-1.6.14-3.77l-8.98-12.19q-1.16-1.57.79-1.6 21.15-.27 40.06 9.44c6.08 3.12 10.43-2.04 4.63-6.6-11.06-8.68-38.94-26.12-53.65-22.34q-8.2 2.11-4.43 12.62a1.01 1 75 0 0 1.11.65l4.71-.82a1 .99-20.3 0 0 .69-1.49q-1.43-2.42.22-3.84c2.44-2.11 10.77.05 13.62.97q9.03 2.9 17.47 7.13 6.2 3.1-.46 1.18ZM34.82 87.92l1.56 4.41a1.03.98 88.3 0 0 .62.61c2.41.84 2.08-1.45 1.58-2.8q-2.96-8.01-5.95-16.07c-1.56-4.2-3.72-2.32-4.93.76q-3.05 7.8-5.85 15.72c-.48 1.37-.5 3.16 1.67 2.35a1 1 0 0 0 .59-.59l1.64-4.41a.99.99 0 0 1 .93-.65h7.2a1.01.99 80 0 1 .94.67Zm45.92-14.86a1.34 1.34 0 0 0-1.34-1.34h-.06A1.34 1.34 0 0 0 78 73.06v18.8a1.34 1.34 0 0 0 1.34 1.34h.06a1.34 1.34 0 0 0 1.34-1.34v-18.8Zm38.15 12.24q-1.67-5.4-3.1-10.86c-1.01-3.86-4.11-3.65-4.72.26q-1.32 8.44-2.82 16.88a1.02 1 30.9 0 0 .21.81c1.47 1.78 2.48.16 2.69-1.34q.77-5.58 1.78-11.16.57-3.17 1.55-.1 1.9 5.97 3.56 12.04c.36 1.31 1.29 1.64 2.43 1.06a1.02.99-6.1 0 0 .51-.61l3.68-12.63q.99-3.38 1.56.1l2.02 12.31a1 .98-80.7 0 0 .5.71q2.37 1.32 1.88-2.01-1.24-8.39-2.72-16.74-.57-3.22-3.4-1.79a.98.97 85.2 0 0-.51.61l-3.57 12.44q-.74 2.58-1.53.02Zm56.6-12.33a1.21 1.21 0 0 0-1.21-1.21h-.32a1.21 1.21 0 0 0-1.21 1.21v18.84a1.21 1.21 0 0 0 1.21 1.21h.32a1.21 1.21 0 0 0 1.21-1.21V72.97Zm-38.51 1.12a1.62 1.62 0 0 0-1.62-1.62 1.62 1.62 0 0 0-1.62 1.62 1.62 1.62 0 0 0 1.62 1.62 1.62 1.62 0 0 0 1.62-1.62Zm6.77 2.12v-2.55a1.01 1 2.5 0 0-.92-1l-.75-.06a1 1 0 0 0-1.08 1v2.68a1 1 0 0 1-.95 1q-1.64.08-1.15 1.52a.99.98 80 0 0 .96.68c1.87-.03 1.14 10.59 1.14 12.34a1 .99 23.2 0 0 .28.69c3.85 4 2.41-10.85 2.38-11.75a1 .99 87.7 0 1 .94-1.03l.38-.02a1.01 1 5.7 0 0 .9-.73q.53-1.83-1.09-1.77a1 1 0 0 1-1.04-1Zm9.16 3.54q1.43-.12 1.37-1.54a1 1 0 0 0-1-.96H153a1 1 0 0 1-1-1v-2.62a1 .99.3 0 0-1-1h-.75a1 1 0 0 0-1 1v2.55a1.01 1-10.8 0 1-.64.93q-3.51 1.34.02 2.75a.99.99 0 0 1 .63.94c0 .71-1.21 15.83 2.49 11.7a1.03.97 67.1 0 0 .25-.67V80.75a1.01 1-2.8 0 1 .91-1ZM43.86 77.77q-1-1.66-2.15-.09c-1.01 1.39-.45 10.41-.45 12.61 0 1.4.39 4.09 2.52 2.28a1 .99 72.1 0 0 .35-.69c.28-4.15-1.63-11.14 4.03-12.26a1 .98-.1 0 0 .78-.77c.43-2.05-1.37-2.14-2.67-1.37q-.52.31-1.03.62a1 1 0 0 1-1.38-.33Zm12.43 12.94c-7.44-2.07-4.53-13.95 2.53-10.59a1 .98-49.5 0 0 1-.09c1.59-1.12.08-2.31-1.1-2.65-12.03-3.45-13.61 18.14.18 15.4q1.94-.38 1.54-2.32-.22-1.08-3.52.22a1 1 0 0 1-.63.03Zm9.34-4.46h8.92a1 1 0 0 0 1-1.02c-.09-4.78-3.38-9.6-8.81-8-9.93 2.94-4.7 21.56 6.9 14.56 1.18-.71 2.32-2.61-.18-2.75a1.01.99 27.4 0 0-.66.2q-2.65 2.03-5.57 1.08-2.19-.71-2.58-2.89a1 1 0 0 1 .98-1.18Zm24.526 7.01a8.19 7.02 89.4 0 0 6.934-8.264 8.19 7.02 89.4 0 0-7.106-8.116 8.19 7.02 89.4 0 0-6.934 8.264 8.19 7.02 89.4 0 0 7.106 8.116Zm11.794-15.59q-.52-1.07-1.83-.54a1.01.99 79.2 0 0-.62.93v13.99a1 .99-79.8 0 0 .64.93c4.92 1.91-1.48-11.99 5.89-13.17a.99.98 6.5 0 0 .75-.59q.81-1.85-1.13-2.28a1 .98 33.5 0 0-.77.15l-1.47.98a1 1 0 0 1-1.46-.4Zm34.79.68a1.33 1.33 0 0 0-1.33-1.33h-.08a1.33 1.33 0 0 0-1.33 1.33v13.52a1.33 1.33 0 0 0 1.33 1.33h.08a1.33 1.33 0 0 0 1.33-1.33V78.35Zm30.09 14.18q.58 1.34 2.06.05a1 1 0 0 0 .35-.76c-.01-2.44.63-12.37-.39-13.95q-1.21-1.86-2.13-.18a.99.99 0 0 1-1.41.36q-2.9-1.86-5.68-.61c-5.78 2.61-5.79 12.83.15 15.28q2.78 1.14 5.6-.64a1 1 0 0 1 1.45.45Z"/><path fill="#fff" d="M175.95 35.69q-8.44-4.23-17.47-7.13c-2.85-.92-11.18-3.08-13.62-.97q-1.65 1.42-.22 3.84a1 .99-20.3 0 1-.69 1.49l-4.71.82a1.01 1 75 0 1-1.11-.65q-3.77-10.51 4.43-12.62c14.71-3.78 42.59 13.66 53.65 22.34 5.8 4.56 1.45 9.72-4.63 6.6q-18.91-9.71-40.06-9.44-1.95.03-.79 1.6l8.98 12.19q1.59 2.17-.14 3.77-2.69 2.49-5.28-.07-4.05-4-11.31-15.4a1.01 1.01 0 0 0-.96-.45c-11.73 1.33-25.51 9.09-34.71 16.24q-2.15 1.67-4.09-.24-2.68-2.66.43-5.2c15.12-12.32 34.43-20.22 54.09-18.73q9.03.68 17.75 3.19 6.66 1.92.46-1.18ZM33.88 87.25h-7.2a.99.99 0 0 0-.93.65l-1.64 4.41a1 1 0 0 1-.59.59c-2.17.81-2.15-.98-1.67-2.35q2.8-7.92 5.85-15.72c1.21-3.08 3.37-4.96 4.93-.76q2.99 8.06 5.95 16.07c.5 1.35.83 3.64-1.58 2.8a1.03.98 88.3 0 1-.62-.61l-1.56-4.41a1.01.99 80 0 0-.94-.67Zm-6.8-2.91a.32.32 0 0 0 .31.42l5.77-.03a.32.32 0 0 0 .3-.43l-2.93-8.17a.32.32 0 0 0-.6 0l-2.85 8.21Z"/><rect width="2.74" height="21.48" x="78" y="71.72" fill="#fff" rx="1.34"/><path fill="#fff" d="m120.42 85.28 3.57-12.44a.98.97 85.2 0 1 .51-.61q2.83-1.43 3.4 1.79 1.48 8.35 2.72 16.74.49 3.33-1.88 2.01a1 .98-80.7 0 1-.5-.71l-2.02-12.31q-.57-3.48-1.56-.1l-3.68 12.63a1.02.99-6.1 0 1-.51.61c-1.14.58-2.07.25-2.43-1.06q-1.66-6.07-3.56-12.04-.98-3.07-1.55.1-1.01 5.58-1.78 11.16c-.21 1.5-1.22 3.12-2.69 1.34a1.02 1 30.9 0 1-.21-.81q1.5-8.44 2.82-16.88c.61-3.91 3.71-4.12 4.72-.26q1.43 5.46 3.1 10.86.79 2.56 1.53-.02Z"/><rect width="2.74" height="21.26" x="172.75" y="71.76" fill="#fff" rx="1.21"/><circle cx="135.36" cy="74.09" r="1.62" fill="#fff"/><path fill="#fff" d="M144.79 77.21q1.62-.06 1.09 1.77a1.01 1 5.7 0 1-.9.73l-.38.02a1 .99 87.7 0 0-.94 1.03c.03.9 1.47 15.75-2.38 11.75a1 .99 23.2 0 1-.28-.69c0-1.75.73-12.37-1.14-12.34a.99.98 80 0 1-.96-.68q-.49-1.44 1.15-1.52a1 1 0 0 0 .95-1V73.6a1 1 0 0 1 1.08-1l.75.06a1.01 1 2.5 0 1 .92 1v2.55a1 1 0 0 0 1.04 1Z"/><path fill="#fff" d="M152 80.75v11.08a1.03.97 67.1 0 1-.25.67c-3.7 4.13-2.49-10.99-2.49-11.7a.99.99 0 0 0-.63-.94q-3.53-1.41-.02-2.75a1.01 1-10.8 0 0 .64-.93v-2.55a1 1 0 0 1 1-1h.75a1 .99.3 0 1 1 1v2.62a1 1 0 0 0 1 1h.28a1 1 0 0 1 1 .96q.06 1.42-1.37 1.54a1.01 1-2.8 0 0-.91 1Z"/><path fill="#414141" d="m27.08 84.34 2.85-8.21a.32.32 0 0 1 .6 0l2.93 8.17a.32.32 0 0 1-.3.43l-5.77.03a.32.32 0 0 1-.31-.42Z"/><path fill="#fff" d="M45.24 78.1q.51-.31 1.03-.62c1.3-.77 3.1-.68 2.67 1.37a1 .98-.1 0 1-.78.77c-5.66 1.12-3.75 8.11-4.03 12.26a1 .99 72.1 0 1-.35.69c-2.13 1.81-2.52-.88-2.52-2.28 0-2.2-.56-11.22.45-12.61q1.15-1.57 2.15.09a1 1 0 0 0 1.38.33Z"/><path fill="#fff" d="M56.29 90.71a1 1 0 0 0 .63-.03q3.3-1.3 3.52-.22.4 1.94-1.54 2.32c-13.79 2.74-12.21-18.85-.18-15.4 1.18.34 2.69 1.53 1.1 2.65a1 .98-49.5 0 1-1 .09c-7.06-3.36-9.97 8.52-2.53 10.59Z"/><path fill="#fff" d="M64.65 87.43q.39 2.18 2.58 2.89 2.92.95 5.57-1.08a1.01.99 27.4 0 1 .66-.2c2.5.14 1.36 2.04.18 2.75-11.6 7-16.83-11.62-6.9-14.56 5.43-1.6 8.72 3.22 8.81 8a1 1 0 0 1-1 1.02h-8.92a1 1 0 0 0-.98 1.18Zm5.91-7.24q-4.61-2.05-5.84 2.51a1.01 1-82.6 0 0 .96 1.26l5.68.03a1 1 0 0 0 1.01-1.04q-.08-2-1.81-2.76Zm19.596 13.07a8.19 7.02 89.4 0 1-7.106-8.117 8.19 7.02 89.4 0 1 6.934-8.263 8.19 7.02 89.4 0 1 7.106 8.117 8.19 7.02 89.4 0 1-6.934 8.263Zm-.076-2.66a5.53 4.12 90 0 0 4.12-5.53 5.53 4.12 90 0 0-4.12-5.53 5.53 4.12 90 0 0-4.12 5.53 5.53 4.12 90 0 0 4.12 5.53Z"/><path fill="#fff" d="m103.41 78.07 1.47-.98a1 .98 33.5 0 1 .77-.15q1.94.43 1.13 2.28a.99.98 6.5 0 1-.75.59c-7.37 1.18-.97 15.08-5.89 13.17a1 .99-79.8 0 1-.64-.93V78.06a1.01.99 79.2 0 1 .62-.93q1.31-.53 1.83.54a1 1 0 0 0 1.46.4Z"/><rect width="2.74" height="16.18" x="134" y="77.02" fill="#fff" rx="1.33"/><path fill="#fff" d="M165.38 92.08q-2.82 1.78-5.6.64c-5.94-2.45-5.93-12.67-.15-15.28q2.78-1.25 5.68.61a.99.99 0 0 0 1.41-.36q.92-1.68 2.13.18c1.02 1.58.38 11.51.39 13.95a1 1 0 0 1-.35.76q-1.48 1.29-2.06-.05a1 1 0 0 0-1.45-.45Zm-3.012-1.48a5.54 4.12 89.5 0 0 4.072-5.576 5.54 4.12 89.5 0 0-4.168-5.504 5.54 4.12 89.5 0 0-4.072 5.576 5.54 4.12 89.5 0 0 4.168 5.504Z"/><path fill="#414141" d="M70.56 80.19q1.73.76 1.81 2.76a1 1 0 0 1-1.01 1.04l-5.68-.03a1.01 1-82.6 0 1-.96-1.26q1.23-4.56 5.84-2.51Z"/><ellipse fill="#414141" rx="5.53" ry="4.12" transform="rotate(90 2.505 87.575)"/><ellipse fill="#414141" rx="5.54" ry="4.12" transform="rotate(89.5 38.257 124.401)"/></svg>